<svg width="28" height="28" viewBox="0 0 28 28" fill="none" xmlns="http://www.w3.org/2000/svg">
<path d="M5.0752 21.5245L5.22394 21.3171L12.2414 8.0049L12.2563 7.86402L9.16319 2.05402C9.10657 1.94778 9.01797 1.86203 8.90993 1.8089C8.80189 1.75578 8.67988 1.73797 8.56116 1.758C8.44245 1.77803 8.33303 1.83488 8.2484 1.9205C8.16377 2.00613 8.10821 2.1162 8.08957 2.23515L5.0752 21.5245Z" fill="#FFC24A"/>
<path d="M5.1626 21.3677L5.2746 21.1489L12.2195 7.97491L9.13422 2.14216C9.08334 2.04072 9.00097 1.9585 8.89944 1.90782C8.7979 1.85713 8.68268 1.84071 8.57103 1.86101C8.45938 1.88131 8.35731 1.93724 8.28012 2.02042C8.20293 2.1036 8.15476 2.20956 8.14285 2.32241L5.1626 21.3677Z" fill="#FFA712"/>
<path d="M14.511 12.2582L16.814 9.8957L14.5101 5.50232C14.4594 5.40777 14.384 5.32874 14.292 5.27364C14.1999 5.21855 14.0946 5.18945 13.9873 5.18945C13.88 5.18945 13.7748 5.21855 13.6827 5.27364C13.5906 5.32874 13.5152 5.40777 13.4645 5.50232L12.2334 7.84907V8.04945L14.511 12.2582Z" fill="#F4BD62"/>
<path d="M14.4701 12.1623L16.7092 9.86983L14.4701 5.59983C14.4334 5.5074 14.3708 5.42754 14.2898 5.36989C14.2088 5.31224 14.1129 5.27925 14.0135 5.27491C13.9142 5.27056 13.8157 5.29504 13.73 5.34539C13.6443 5.39575 13.5749 5.46983 13.5303 5.5587L12.2931 7.94658L12.2563 8.0682L14.4701 12.1623Z" fill="#FFA50E"/>
<path d="M5.07666 21.5253L5.14404 21.4571L5.38816 21.3582L14.3657 12.4139L14.4794 12.1042L12.2403 7.83594L5.07666 21.5253Z" fill="#F6820C"/>
<path d="M14.7982 26.0363L22.9252 21.5047L20.6029 7.21504C20.5863 7.1143 20.5422 7.0201 20.4755 6.94278C20.4089 6.86546 20.3222 6.808 20.225 6.77672C20.1278 6.74544 20.0239 6.74154 19.9246 6.76546C19.8253 6.78937 19.7346 6.84018 19.6623 6.91229L5.0752 21.5248L13.1541 26.0354C13.4052 26.1756 13.6881 26.2491 13.9757 26.2491C14.2633 26.2491 14.5462 26.1756 14.7973 26.0354" fill="#FDE068"/>
<path d="M22.8507 21.4672L20.5477 7.28518C20.5437 7.18883 20.5111 7.09586 20.4542 7.01802C20.3972 6.94018 20.3185 6.88098 20.2279 6.84791C20.1373 6.81484 20.039 6.80939 19.9453 6.83225C19.8516 6.8551 19.7668 6.90524 19.7016 6.97631L5.1626 21.4978L13.1522 25.9603C13.4014 26.0993 13.682 26.1723 13.9673 26.1723C14.2526 26.1723 14.5332 26.0993 14.7823 25.9603L22.8507 21.4672Z" fill="#FCCA3F"/>
<path d="M14.7982 25.9004C14.547 26.0406 14.2642 26.1142 13.9766 26.1142C13.6889 26.1142 13.4061 26.0406 13.1549 25.9004L5.1417 21.4572L5.0752 21.5254L13.1541 26.0361C13.4052 26.1762 13.6881 26.2498 13.9757 26.2498C14.2633 26.2498 14.5462 26.1762 14.7973 26.0361L22.9252 21.5053L22.9051 21.3828L14.7982 25.9004Z" fill="#EEAB37"/>
</svg>
