<svg width="200" height="168" viewBox="0 0 200 168" fill="none" xmlns="http://www.w3.org/2000/svg">
<g clip-path="url(#clip0_56_2269)">
<path d="M9.29298 159.6C12.0672 164.745 17.955 166.954 17.955 166.954C17.955 166.954 19.345 160.821 16.5708 155.676C13.7966 150.531 7.90876 148.322 7.90876 148.322C7.90876 148.322 6.51878 154.455 9.29298 159.6Z" fill="#2F2E41"/>
<path d="M11.2001 157.907C16.2087 160.921 18.1377 166.906 18.1377 166.906C18.1377 166.906 11.9461 168.006 6.93753 164.992C1.92896 161.979 0 155.994 0 155.994C0 155.994 6.19154 154.894 11.2001 157.907Z" fill="#38597C"/>
<path d="M123.493 8.52148H92.2432V8.96791H123.493V8.52148Z" fill="#F2F2F2"/>
<path d="M115.011 8.85645H114.564V12.9859H115.011V8.85645Z" fill="#F2F2F2"/>
<path d="M101.395 8.85645H100.948V12.9859H101.395V8.85645Z" fill="#F2F2F2"/>
<path d="M139.341 29.9502H108.091V30.3966H139.341V29.9502Z" fill="#F2F2F2"/>
<path d="M117.02 25.9326H116.573V30.0621H117.02V25.9326Z" fill="#F2F2F2"/>
<path d="M130.636 25.9326H130.189V30.0621H130.636V25.9326Z" fill="#F2F2F2"/>
<path d="M180.859 39.9951H149.609V40.4415H180.859V39.9951Z" fill="#F2F2F2"/>
<path d="M158.538 35.9766H158.091V40.106H158.538V35.9766Z" fill="#F2F2F2"/>
<path d="M172.153 35.9766H171.707V40.106H172.153V35.9766Z" fill="#F2F2F2"/>
<path d="M177.734 143.566H146.484V144.013H177.734V143.566Z" fill="#F2F2F2"/>
<path d="M155.413 139.548H154.966V143.677H155.413V139.548Z" fill="#F2F2F2"/>
<path d="M169.028 139.548H168.582V143.677H169.028V139.548Z" fill="#F2F2F2"/>
<path d="M124.386 71.9141H93.1357V72.3605H124.386V71.9141Z" fill="#F2F2F2"/>
<path d="M102.065 67.8965H101.618V72.0259H102.065V67.8965Z" fill="#F2F2F2"/>
<path d="M115.681 67.8965H115.234V72.0259H115.681V67.8965Z" fill="#F2F2F2"/>
<path d="M134.207 125.709H102.957V126.155H134.207V125.709Z" fill="#F2F2F2"/>
<path d="M111.886 121.691H111.439V125.821H111.886V121.691Z" fill="#F2F2F2"/>
<path d="M125.502 121.691H125.056V125.821H125.502V121.691Z" fill="#F2F2F2"/>
<path d="M184.207 109.414H152.957V109.86H184.207V109.414Z" fill="#F2F2F2"/>
<path d="M161.886 105.396H161.439V109.526H161.886V105.396Z" fill="#F2F2F2"/>
<path d="M175.502 105.396H175.056V109.526H175.502V105.396Z" fill="#F2F2F2"/>
<path d="M80.8169 157.244H27.9629V156.864H80.4365V138.422H32.4062L30.0729 133.561L30.4158 133.396L32.6455 138.042H80.8169V157.244Z" fill="#2F2E41"/>
<path d="M34.9975 166.56C37.2025 166.56 38.99 164.773 38.99 162.568C38.99 160.363 37.2025 158.575 34.9975 158.575C32.7924 158.575 31.0049 160.363 31.0049 162.568C31.0049 164.773 32.7924 166.56 34.9975 166.56Z" fill="#3F3D56"/>
<path d="M74.3529 166.56C76.558 166.56 78.3455 164.773 78.3455 162.568C78.3455 160.363 76.558 158.575 74.3529 158.575C72.1479 158.575 70.3604 160.363 70.3604 162.568C70.3604 164.773 72.1479 166.56 74.3529 166.56Z" fill="#3F3D56"/>
<path d="M120.743 80.244C122.108 80.244 123.214 79.1374 123.214 77.7724C123.214 76.4074 122.108 75.3008 120.743 75.3008C119.378 75.3008 118.271 76.4074 118.271 77.7724C118.271 79.1374 119.378 80.244 120.743 80.244Z" fill="#3F3D56"/>
<path d="M86.4697 132.148H27.0616L14.207 90.1309H99.708L99.6302 90.3781L86.4697 132.148ZM27.3428 131.768H86.1909L99.1896 90.5111H14.721L27.3428 131.768Z" fill="#2F2E41"/>
<path d="M81.8323 129.961H29.652L18.3613 92.6973H93.4598L93.3915 92.9167L81.8323 129.961Z" fill="#F2F2F2"/>
<path d="M100.773 86.3772L100.406 86.2796L102.915 76.8223H117.511V77.2026H103.208L100.773 86.3772Z" fill="#2F2E41"/>
<path d="M95.4357 102.869H18.3613V103.249H95.4357V102.869Z" fill="#2F2E41"/>
<path d="M91.0216 116.878H22.647V117.258H91.0216V116.878Z" fill="#2F2E41"/>
<path d="M57.1468 90.3203H56.7666V131.957H57.1468V90.3203Z" fill="#2F2E41"/>
<path d="M74.171 90.3085L71.4414 131.944L71.8209 131.969L74.5504 90.3334L74.171 90.3085Z" fill="#2F2E41"/>
<path d="M39.7501 90.3083L39.3706 90.333L42.0843 131.97L42.4638 131.945L39.7501 90.3083Z" fill="#2F2E41"/>
<path d="M200 166.801H0V167.247H200V166.801Z" fill="#2F2E41"/>
<path d="M132.904 14.3176C132.904 14.3176 136.167 23.6048 134.159 25.0335C132.151 26.4623 140.936 38.1307 140.936 38.1307L151.479 35.2732L145.705 25.5098C145.705 25.5098 144.952 15.7464 144.952 14.3176C144.952 12.8888 132.904 14.3176 132.904 14.3176Z" fill="#A0616A"/>
<path opacity="0.1" d="M132.904 14.3176C132.904 14.3176 136.167 23.6048 134.159 25.0335C132.151 26.4623 140.936 38.1307 140.936 38.1307L151.479 35.2732L145.705 25.5098C145.705 25.5098 144.952 15.7464 144.952 14.3176C144.952 12.8888 132.904 14.3176 132.904 14.3176Z" fill="black"/>
<path d="M127.427 80.5184C127.427 80.5184 126.475 92.4249 127.427 98.6163C128.38 104.808 129.809 121.953 129.809 121.953C129.809 121.953 129.809 154.339 135.047 154.815C140.286 155.292 144.096 155.768 144.573 153.863C145.049 151.958 142.191 151.005 143.62 150.053C145.049 149.1 145.525 145.766 143.62 141.956C141.715 138.146 143.62 99.5688 143.62 99.5688L152.669 123.858C152.669 123.858 153.622 143.861 154.574 146.719C155.527 149.576 153.622 154.815 156.956 155.292C160.289 155.768 164.099 152.91 166.004 151.958C167.91 151.005 163.147 151.005 164.099 150.529C165.052 150.053 167.91 148.624 166.957 148.148C166.004 147.671 165.052 124.811 165.052 124.811C165.052 124.811 162.433 75.9939 159.099 74.0888C155.765 72.1838 153.622 75.4651 153.622 75.4651L127.427 80.5184Z" fill="#2F2E41"/>
<path d="M136 152.91V156.72C136 156.72 131.713 167.077 136 167.077C140.286 167.077 143.62 168.151 143.62 166.722V153.863L136 152.91Z" fill="#2F2E41"/>
<path d="M164.099 152.903V156.713C164.099 156.713 168.386 167.07 164.099 167.07C159.813 167.07 156.479 168.144 156.479 166.715V153.856L164.099 152.903Z" fill="#2F2E41"/>
<path d="M139.572 21.2236C144.306 21.2236 148.144 17.3854 148.144 12.6508C148.144 7.91626 144.306 4.07812 139.572 4.07812C134.837 4.07812 130.999 7.91626 130.999 12.6508C130.999 17.3854 134.837 21.2236 139.572 21.2236Z" fill="#A0616A"/>
<path d="M136.953 28.6055C136.953 28.6055 139.334 35.7494 143.144 34.3206L146.954 32.8918L153.622 78.613C153.622 78.613 148.383 86.2332 140.763 81.4706C133.142 76.708 136.953 28.6055 136.953 28.6055Z" fill="#38597C"/>
<path d="M143.62 27.1768L145.763 22.6523C145.763 22.6523 158.384 28.6056 160.289 30.5107C162.194 32.4157 162.194 35.2733 162.194 35.2733L158.861 47.1799C158.861 47.1799 159.813 73.3743 159.813 74.3268C159.813 75.2793 163.147 80.5182 160.766 78.6132C158.384 76.7081 157.908 74.8031 156.003 77.6606C154.098 80.5182 149.812 83.852 149.812 83.852L143.62 27.1768Z" fill="#3F3D56"/>
<path d="M160.289 61.4678L158.86 74.8031C158.86 74.8031 150.288 82.4233 152.193 82.8996C154.098 83.3758 155.05 81.4708 155.05 81.4708C155.05 81.4708 158.384 84.8046 160.289 82.8996C162.194 80.9945 166.957 62.8966 166.957 62.8966L160.289 61.4678Z" fill="#A0616A"/>
<path d="M139.754 0.534848C137.854 0.466909 135.82 0.433301 134.218 1.45744C133.48 1.97141 132.834 2.60442 132.304 3.33055C130.744 5.30342 129.395 7.78574 129.975 10.2335L130.648 9.97094C130.648 10.6243 130.503 11.2696 130.223 11.8599C130.318 11.5842 130.635 12.0299 130.55 12.3088L129.809 14.742C131.028 14.295 132.544 15.2 132.73 16.4852C132.815 13.659 133.108 10.4183 135.401 8.76347C136.557 7.92894 138.02 7.67418 139.428 7.44796C140.726 7.23925 142.088 7.04024 143.332 7.46779C144.576 7.89535 145.635 9.16757 145.353 10.4524C145.927 10.2548 146.568 10.6545 146.852 11.1909C147.135 11.7273 147.15 12.36 147.159 12.9666C147.77 13.3987 148.466 12.5406 148.715 11.8346C149.3 10.1774 149.82 8.41334 149.505 6.6844C149.19 4.95547 147.781 3.30322 146.023 3.29735C146.237 3.06305 146.351 2.75496 146.341 2.43826L144.892 2.31587C145.26 2.2638 145.598 2.0855 145.849 1.81151C145.267 2.45145 140.695 0.568467 139.754 0.534848Z" fill="#2F2E41"/>
<path d="M139.334 25.7487C139.334 25.7487 135.457 21.9494 134.061 22.1821C132.666 22.4149 130.761 25.7487 130.761 25.7487C130.761 25.7487 119.331 29.5588 119.807 33.3689C120.283 37.179 125.522 55.7532 125.522 55.7532C125.522 55.7532 129.808 78.1376 125.998 80.5189C122.188 82.9002 144.096 89.0916 144.573 86.234C145.049 83.3764 146.001 54.8007 144.573 50.5144C143.144 46.228 139.334 25.7487 139.334 25.7487Z" fill="#3F3D56"/>
<path d="M156.003 33.3682H161.892C161.892 33.3682 166.004 51.4661 166.481 53.3712C166.957 55.2762 167.909 64.3252 167.433 64.3252C166.957 64.3252 157.432 62.4202 157.432 63.849L156.003 33.3682Z" fill="#3F3D56"/>
<path d="M155.803 78.1844H133.259C131.059 68.0639 130.875 58.2857 133.259 48.9434H155.803C152.165 58.1176 151.938 67.8289 155.803 78.1844Z" fill="#F2F2F2"/>
<path d="M124.093 65.7545L130.761 68.6121C130.761 68.6121 143.62 70.5171 143.62 65.2782C143.62 60.0394 130.761 62.8969 130.761 62.8969L126.474 61.5264L124.093 65.7545Z" fill="#A0616A"/>
<path d="M125.522 30.5107L119.807 31.9395L115.521 57.1814C115.521 57.1814 114.092 63.8491 116.473 64.3254C118.855 64.8016 125.522 68.6117 125.522 68.6117C125.522 68.6117 126.475 61.4678 128.38 61.4678L123.617 57.6577L126.475 40.9885L125.522 30.5107Z" fill="#3F3D56"/>
<path d="M44.6982 79.2803H13.4482V79.7267H44.6982V79.2803Z" fill="#F2F2F2"/>
<path d="M22.3771 75.2627H21.9307V79.3922H22.3771V75.2627Z" fill="#F2F2F2"/>
<path d="M35.9933 75.2627H35.5469V79.3922H35.9933V75.2627Z" fill="#F2F2F2"/>
<path d="M55.6357 13.209H24.3857V13.6554H55.6357V13.209Z" fill="#F2F2F2"/>
<path d="M47.1535 13.5439H46.707V17.6734H47.1535V13.5439Z" fill="#F2F2F2"/>
<path d="M33.5377 13.5439H33.0913V17.6734H33.5377V13.5439Z" fill="#F2F2F2"/>
<path d="M87.1094 57.1826H55.8594V57.629H87.1094V57.1826Z" fill="#F2F2F2"/>
<path d="M78.6271 57.5176H78.1807V61.647H78.6271V57.5176Z" fill="#F2F2F2"/>
<path d="M65.0109 57.5176H64.5645V61.647H65.0109V57.5176Z" fill="#F2F2F2"/>
<path d="M33.9844 56.959H2.73438V57.4054H33.9844V56.959Z" fill="#F2F2F2"/>
<path d="M25.5021 57.2939H25.0557V61.4234H25.5021V57.2939Z" fill="#F2F2F2"/>
<path d="M11.8859 57.2939H11.4395V61.4234H11.8859V57.2939Z" fill="#F2F2F2"/>
<path d="M71.4844 34.6377H40.2344V35.0841H71.4844V34.6377Z" fill="#F2F2F2"/>
<path d="M49.1627 30.6201H48.7163V34.7496H49.1627V30.6201Z" fill="#F2F2F2"/>
<path d="M62.7785 30.6201H62.332V34.7496H62.7785V30.6201Z" fill="#F2F2F2"/>
</g>
<defs>
<clipPath id="clip0_56_2269">
<rect width="200" height="166.958" fill="white" transform="translate(0 0.505859)"/>
</clipPath>
</defs>
</svg>
